<?xml version="1.0" encoding="utf-8"?>
<!-- Generator: Adobe Illustrator 24.1.0, SVG Export Plug-In . SVG Version: 6.00 Build 0)  -->
<svg version="1.1" id="Layer_1" xmlns="http://www.w3.org/2000/svg" xmlns:xlink="http://www.w3.org/1999/xlink" x="0px" y="0px"
	 viewBox="0 0 504 360" style="enable-background:new 0 0 504 360;" xml:space="preserve">
<style type="text/css">
	.st0{fill:#ED1C24;}
	.st1{fill:#2E3192;}
	.st2{fill:none;}
	.st3{font-family:'MyriadPro-Regular';}
	.st4{font-size:12px;}
	.st5{fill:#00A651;}
	.st6{fill:none;stroke:#000000;stroke-width:2;stroke-miterlimit:10;}
</style>
<path d="M199.9,124.3H44.7V30.1h155.1V124.3z M45.7,123.3h153.1V31.1H45.7V123.3z"/>
<path class="st0" d="M452.1,127.6H288.7V29.3h163.4V127.6z M289.7,126.6h161.4V30.3H289.7V126.6z"/>
<path class="st1" d="M202.1,307.2H38.7V206.5h163.4V307.2z M39.7,306.2h161.4v-98.7H39.7V306.2z"/>
<rect x="66.2" y="44.1" class="st2" width="116.9" height="142.4"/>
<text transform="matrix(1 0 0 1 66.2295 52.6602)"><tspan x="0" y="0" class="st3 st4">USER</tspan><tspan x="0" y="14.4" class="st3 st4">-login info</tspan><tspan x="0" y="28.8" class="st3 st4">-userID</tspan></text>
<text transform="matrix(1 0 0 1 314.9551 47.0063)"><tspan x="0" y="0" class="st0 st3 st4">USER PROFILE</tspan><tspan x="0" y="14.4" class="st3 st4">-userID: string</tspan><tspan x="0" y="28.8" class="st3 st4">-indexIDs: [</tspan><tspan x="55.5" y="28.8" class="st5 st3 st4">string</tspan><tspan x="84.4" y="28.8" class="st3 st4">,]</tspan></text>
<text transform="matrix(1 0 0 1 62.7266 222.9297)"><tspan x="0" y="0" class="st1 st3 st4">TRADIER API</tspan><tspan x="0" y="14.4" class="st1 st3 st4">-ticker: string</tspan><tspan x="0" y="28.8" class="st1 st3 st4">-realTimeData: JSON</tspan><tspan x="0" y="43.2" class="st1 st3 st4">-historicalData: JSON</tspan><tspan x="0" y="57.6" class="st1 st3 st4">-tickerList: [ticker,]</tspan></text>
<line class="st6" x1="199.4" y1="75.7" x2="289.2" y2="75.7"/>
<line class="st6" x1="367.5" y1="127.1" x2="367.5" y2="207"/>
<line class="st6" x1="352.9" y1="207" x2="367.5" y2="194.8"/>
<line class="st6" x1="379.9" y1="207" x2="367.5" y2="194.8"/>
<path class="st5" d="M453.4,307.1H290V206.5h163.4V307.1z M291,306.1h161.4v-98.7H291V306.1z"/>
<text transform="matrix(1 0 0 1 314.096 222.8915)"><tspan x="0" y="0" class="st5 st3 st4">INDEX</tspan><tspan x="0" y="14.4" class="st5 st3 st4">-indexID: string</tspan><tspan x="0" y="28.8" class="st5 st3 st4">-indexName: string</tspan><tspan x="0" y="43.2" class="st5 st3 st4">-holdings: [</tspan><tspan x="55.9" y="43.2" class="st1 st3 st4">ticker</tspan><tspan x="83.6" y="43.2" class="st5 st3 st4">,]</tspan></text>
<line class="st6" x1="202.1" y1="254" x2="290" y2="254"/>
<line class="st6" x1="270.1" y1="254" x2="291" y2="240.6"/>
<line class="st6" x1="290" y1="269.3" x2="270.1" y2="254"/>
</svg>
