<?xml version="1.0" encoding="utf-8"?>
<!-- Generator: Adobe Illustrator 24.1.0, SVG Export Plug-In . SVG Version: 6.00 Build 0)  -->
<svg version="1.1" id="Layer_1" xmlns="http://www.w3.org/2000/svg" xmlns:xlink="http://www.w3.org/1999/xlink" x="0px" y="0px"
	 viewBox="0 0 504 360" style="enable-background:new 0 0 504 360;" xml:space="preserve">
<style type="text/css">
	.st0{fill:#FFFFFF;stroke:#000000;stroke-miterlimit:10;}
	.st1{font-family:'MyriadPro-Regular';}
	.st2{font-size:12px;}
</style>
<rect x="114" y="175.6" class="st0" width="262.7" height="273.4"/>
<rect x="144.3" y="201.6" class="st0" width="205" height="17.8"/>
<rect x="144.3" y="263.7" class="st0" width="205" height="17.8"/>
<rect class="st0" width="504" height="38.1"/>
<rect x="142.5" y="44.2" class="st0" width="205.8" height="115.8"/>
<rect x="-444.4" y="294.1" class="st0" width="403.2" height="98.3"/>
<text transform="matrix(1 0 0 1 209.0956 23.5732)" class="st1 st2">NAVIGATION BAR</text>
<text transform="matrix(1 0 0 1 -342.8531 180.7642)" class="st1 st2">HERO IMAGE</text>
<text transform="matrix(1 0 0 1 -306.8658 327.2612)" class="st1 st2">INFO ABOUT THE SITE</text>
<text transform="matrix(1 0 0 1 144.3053 197.2325)"><tspan x="0" y="0" class="st1 st2">name:</tspan><tspan x="0" y="57.6" class="st1 st2">select stocks:</tspan></text>
<rect x="143.6" y="314.5" class="st0" width="205" height="17.8"/>
<text transform="matrix(1 0 0 1 235.5966 327.2251)" class="st1 st2">save</text>
<text transform="matrix(1 0 0 1 227.1771 104.8969)" class="st1 st2">INDEX</text>
</svg>
