<?xml version="1.0" encoding="utf-8"?>
<!-- Generator: Adobe Illustrator 24.1.0, SVG Export Plug-In . SVG Version: 6.00 Build 0)  -->
<svg version="1.1" id="Layer_1" xmlns="http://www.w3.org/2000/svg" xmlns:xlink="http://www.w3.org/1999/xlink" x="0px" y="0px"
	 viewBox="0 0 504 360" style="enable-background:new 0 0 504 360;" xml:space="preserve">
<style type="text/css">
	.st0{fill:#FFFFFF;stroke:#000000;stroke-miterlimit:10;}
	.st1{font-family:'MyriadPro-Regular';}
	.st2{font-size:12px;}
</style>
<rect x="118.1" y="68.6" class="st0" width="262.7" height="273.4"/>
<rect x="148.4" y="124.6" class="st0" width="205" height="17.8"/>
<rect x="148.4" y="186.7" class="st0" width="205" height="17.8"/>
<rect x="146.9" y="240.3" class="st0" width="205" height="17.8"/>
<rect class="st0" width="504" height="38.1"/>
<rect x="-457.5" y="88.4" class="st0" width="295.2" height="161.5"/>
<rect x="-444.4" y="294.1" class="st0" width="403.2" height="98.3"/>
<text transform="matrix(1 0 0 1 219.0956 20.5732)" class="st1 st2">NAVIGATION BAR</text>
<text transform="matrix(1 0 0 1 -342.8531 180.7642)" class="st1 st2">HERO IMAGE</text>
<text transform="matrix(1 0 0 1 -306.8658 327.2612)" class="st1 st2">INFO ABOUT THE SITE</text>
<text transform="matrix(1 0 0 1 148.3849 120.2308)"><tspan x="0" y="0" class="st1 st2">username:</tspan><tspan x="0" y="57.6" class="st1 st2">password:</tspan></text>
<text transform="matrix(1 0 0 1 152.1352 235.4174)" class="st1 st2">password</text>
<rect x="147.6" y="307.5" class="st0" width="205" height="17.8"/>
<text transform="matrix(1 0 0 1 214.3797 319.9554)" class="st1 st2">create account</text>
</svg>
