<?xml version="1.0" encoding="utf-8"?>
<!-- Generator: Adobe Illustrator 24.1.0, SVG Export Plug-In . SVG Version: 6.00 Build 0)  -->
<svg version="1.1" id="Layer_1" xmlns="http://www.w3.org/2000/svg" xmlns:xlink="http://www.w3.org/1999/xlink" x="0px" y="0px"
	 viewBox="0 0 504 360" style="enable-background:new 0 0 504 360;" xml:space="preserve">
<style type="text/css">
	.st0{fill:#FFFFFF;stroke:#000000;stroke-miterlimit:10;}
	.st1{font-family:'MyriadPro-Regular';}
	.st2{font-size:12px;}
</style>
<rect class="st0" width="504" height="38.1"/>
<rect x="37.2" y="55.9" class="st0" width="295.2" height="161.5"/>
<rect x="50.3" y="261.7" class="st0" width="403.2" height="98.3"/>
<text transform="matrix(1 0 0 1 219.0956 20.5732)" class="st1 st2">NAVIGATION BAR</text>
<text transform="matrix(1 0 0 1 151.8981 148.2803)" class="st1 st2">HERO IMAGE</text>
<text transform="matrix(1 0 0 1 187.8855 294.7773)" class="st1 st2">INFO ABOUT THE SITE</text>
<rect x="365.6" y="55.9" class="st0" width="115.9" height="161.5"/>
<text transform="matrix(1 0 0 1 394.8914 88.4075)"><tspan x="0" y="0" class="st1 st2">username:</tspan><tspan x="0" y="43.2" class="st1 st2">password:</tspan></text>
<rect x="379" y="96.1" class="st0" width="90.4" height="12.7"/>
<rect x="379" y="140.5" class="st0" width="90.4" height="12.7"/>
<rect x="378.3" y="178.9" class="st0" width="90.4" height="12.7"/>
<text transform="matrix(1 0 0 1 402.2998 188.4014)" class="st1 st2">Sign Up</text>
</svg>
