<?xml version="1.0" encoding="utf-8"?>
<!-- Generator: Adobe Illustrator 24.1.0, SVG Export Plug-In . SVG Version: 6.00 Build 0)  -->
<svg version="1.1" xmlns="http://www.w3.org/2000/svg" xmlns:xlink="http://www.w3.org/1999/xlink" x="0px" y="0px"
	 viewBox="0 0 407.3 123.3" style="enable-background:new 0 0 407.3 123.3;" xml:space="preserve">
<style type="text/css">
	.st0{fill:#7E4BDB;}
	.st1{fill:#70FFAF;}
</style>
<g id="Layer_4">
</g>
<g id="Layer_3">
</g>
<g id="Layer_5">
	<g>
		<path class="st0" d="M25.9,34.8c-1.2,0.3-1.9-0.1-2.3-1c-0.1-0.3-0.3-0.7-0.3-1c-0.2-1,0.2-1.8,1.1-2.2c1.3-0.5,2.6-0.9,3.9-1.3
			c0.9-0.3,1.8,0.1,2.1,1c0.1,0.3,0.2,0.6,0.3,0.9c0.3,1.1,0,1.9-1.2,2.4c-0.1-0.1-0.1-0.3-0.1-0.4c-0.1-0.2-0.1-0.4-0.2-0.6
			c-0.2-0.5-0.6-0.7-1.1-0.5c-0.7,0.2-1.3,0.4-2,0.7c-0.5,0.2-0.7,0.6-0.6,1.2C25.6,34.2,25.8,34.5,25.9,34.8z"/>
		<path class="st0" d="M54.2,23.8c0,0.5-0.1,0.8-0.5,0.9c-0.1,0.1-0.3,0.1-0.4,0.2c-0.4,0.1-0.8,0-0.9-0.4c-0.2-0.6-0.4-1.2-0.6-1.8
			c-0.1-0.4,0.1-0.7,0.4-0.9c0.1-0.1,0.3-0.1,0.5-0.2c0.4-0.1,0.7,0,0.9,0.4C53.8,22.6,54,23.3,54.2,23.8z"/>
	</g>
	<g>
		<path class="st1" d="M4.4,77.6c0.1-0.1,0.3-0.1,0.3-0.2c0.6-1.3,1.6-2.4,2.4-3.6c0.4-0.6,0.8-1.1,1.2-1.6c-0.2-0.4-0.5-0.7-0.8-1
			c-0.8-0.8-0.8-1.1,0-1.9c1.1-1,2.2-1.9,3.3-2.8c0.6-0.5,1.4-0.7,2.1-0.6c1.1,0.1,2.2,0.2,3.3,0.3c1,0.1,2.1,0.2,3.1,0.3
			c0.3-0.4,0.5-0.8,0.7-1.2c1.2-2,2.4-4,3.5-6.1c1-1.7,1.4-3.6,1.6-5.6c0-0.5,0.1-1,0.1-1.5c0-0.2,0-0.3,0-0.5
			c-0.3,0-0.5-0.1-0.8-0.1c-2.2-0.2-4.1-1-5.7-2.5c-1.2-1.1-2.2-2.4-2.7-3.9c-0.7-2.2-1.5-4.5-2.2-6.8c-0.8-2.5-0.4-4.9,0.9-7.2
			c1.3-2.3,3.2-4.1,5.7-5c2.3-0.8,4.7-1.6,7-2.3c5-1.6,9.9-3.2,14.9-4.8c1.5-0.5,3.1-0.7,4.7-0.7c4.2,0.1,7.9,2.9,9.2,6.9
			c0.6,1.7,1.1,3.4,1.7,5.1c0.4,1.3,0.7,2.7,0.6,4.1c-0.1,0.9-0.2,1.6-0.9,2.3c-0.4,0.4-0.7,0.9-1.1,1.4c-0.7-0.5-1.3-1-1.9-1.5
			c-0.6,0.3-1,0.7-1.4,1.1c-0.9,0.7-0.8,0.8-2,0.4c-0.5-0.2-1-0.3-1.5-0.5c-0.3-0.1-0.6,0-0.9,0.2c-0.4,0.4-0.9,0.8-1.3,1.3
			c-0.5,0.6-1.1,0.7-1.8,0.4c-0.6-0.3-1.3-0.5-1.9-0.7c-0.2-0.1-0.4-0.1-0.6-0.2c-0.8,0.7-1.2,1.7-2.1,2.4c-0.3-0.2-0.5-0.5-0.7-0.7
			c-0.3-0.3-0.5-0.6-0.8-0.8c-0.2-0.2-0.5-0.3-0.8-0.3c-0.6,0.1-1.2,0.2-1.9,0.4c-0.1,0.3-0.2,0.6-0.2,0.9c-0.6,0-0.9-0.7-1.5-0.6
			c0,0.7,0.4,2.1,0.9,3c0.3,0,0.6-0.2,0.8-0.4c0.3-0.1,0.6-0.3,0.8-0.5c0.3-0.1,0.6-0.3,0.9-0.5c0.4,0.4,0.8,0.8,1.1,1.2
			c0.3,0.4,0.7,0.6,1.3,0.6c0.5,0,1,0,1.4,0.1c0.5,0.1,0.9-0.1,1.2-0.4c0.3-0.3,0.7-0.6,1.1-1c0.4,0.4,0.4,0.9,0.6,1.3
			c0.3,0.1,0.4-0.1,0.5-0.2c0.8-0.6,1.5-1.2,2.3-1.9c0.2-0.2,0.5-0.4,0.8-0.6c0.5,1,0.7,2.1,1.1,3.1c-0.3,0.4-0.6,0.4-1,0.5
			c-4.2,1.4-8.4,2.7-12.6,4.1c-1.6,0.5-3.2,1-4.7,1.5c-0.2,0.1-0.4,0.2-0.7,0.2c0,0.1-0.1,0.2-0.1,0.4c0.1,1.8,0.2,3.6,0.6,5.3
			c0.2,0.7,0.4,1.4,0.9,2c0.6,0.6,1.1,1.3,1.6,1.9c0.3,0.3,0.6,0.5,1,0.5c0.6,0,1.1-0.1,1.8,0.1c0,0.2,0,0.4-0.1,0.6
			c-0.1,0.5-0.3,0.9-0.4,1.4c-0.1,0.3-0.1,0.6,0.1,0.9c0.4,0.5,0.8,1,1.3,1.4c0.3,0.3,0.6,0.4,1,0.4c0.6,0,1.3,0,2,0
			c0,0.3,0.1,0.5,0.1,0.7c0,0.6,0,1.2,0,1.7c0,0.5,0.1,0.9,0.5,1.3c0.1,0.1,0.3,0.3,0.4,0.4c0.3,0.3,0.6,0.4,1,0.4
			c0.5,0,1,0,1.6,0.1c0,0.2,0.1,0.4,0.1,0.6c0,0.5,0,1,0,1.4c0,0.7,0.6,1.4,1.4,1.4c0.7,0,1.3,0,2,0c0.2,0,0.4,0,0.7,0.1
			c-0.1,0.7-0.3,1.2-0.5,1.8c-0.4,1.1-0.4,1.1,0.4,1.9c0.1,0.2,0.3,0.3,0.5,0.5c0.5-0.1,1.1-0.3,1.6-0.4c0.2,0.2,0.1,0.3,0.1,0.5
			c-0.1,0.4-0.3,0.8-0.5,1.2c0.2,0.6,0.7,1,1.1,1.4c0.2,0.2,0.4,0.2,0.6,0.1c0.7-0.2,1.2-0.6,1.7-1c1.3-1.1,2.5-2.3,3.5-3.6
			c1.3-1.6,2.7-3.2,3.9-4.9c1.5-1.9,2.9-3.9,4.4-5.8c0.2-0.3,0.4-0.6,0.8-0.8c-0.1,0.5-0.1,1-0.2,1.5c-1.7,7.8-4.3,15.3-8.2,22.3
			c-1.7,3-3.6,5.8-5.9,8.4c-2.6,3-5.6,5.6-9.1,7.5c-0.4,0.2-0.8,0.4-1.2,0.6c-0.4,0.2-0.6,0.5-0.6,0.9c0,0.7,0,1.3,0,2
			c0,1.3,0,2.6,0.1,4c0.1,0.1,0.2,0.2,0.4,0.3c0.5,0.4,0.7,0.8,0.7,1.4c0,1,0,2,0,3.1c0,0.8-0.3,1.4-1.1,1.8c-0.1,0-0.1,0.1-0.1,0.1
			c-2.9,0-5.8,0-8.6,0c-0.2-0.1-0.3-0.2-0.5-0.3c-0.4-0.3-0.7-0.7-0.7-1.3c0-1.2,0-2.4,0-3.5c0-0.8,0.6-1.4,1.4-1.5
			c0.2,0,0.4,0,0.6,0c1.2,0,2.3,0,3.5,0c0.2,0,0.4,0,0.6-0.1c0.1-0.1,0.1-0.2,0.1-0.2c0-1.4,0-2.8,0-4.2c0-0.1-0.1-0.3-0.2-0.4
			c-0.1,0-0.2,0-0.2,0c-2.6,0.7-5.2,1.1-7.9,1.2c-0.1,0-0.3,0.1-0.5,0.1c0,0.5,0,0.9,0,1.4c0.8,0.5,1,1.2,1,2.1c0,0.8,0,1.5,0,2.3
			c0,1.6-0.6,2.1-2.1,2.1c-2.2,0-4.5,0-6.7,0c-0.4,0-0.8,0-1.1,0.1c0,0,0,0,0,0c-0.2-0.2-0.4-0.4-0.6-0.6c-0.3-0.3-0.5-0.6-0.5-1
			c0-1.2,0-2.4,0-3.5c0-0.9,0.7-1.5,1.5-1.6c0.2,0,0.4,0,0.7,0c1.1,0,2.1,0,3.2,0c0.2,0,0.5,0,0.8-0.1c0-0.7,0.1-1.3,0-1.9
			c-0.2-0.1-0.3-0.1-0.5-0.2c-3-1.1-5.2-3.1-6.6-6c-1-2-1.5-4.1-1.8-6.3c-0.3-2-0.3-3.9-0.3-5.9c0-2.2,0.3-4.4,0.6-6.6
			c0.3-1.8,0.6-3.6,0.9-5.4c0-0.2,0-0.4,0-0.6c-1.3-0.3-2.6-0.4-3.9-0.6c-0.4-0.1-0.7,0.1-1,0.5c-0.6,0.9-1.2,1.7-1.9,2.6
			c-0.5,0.7-0.8,1.4-1.1,2.1c-0.3,1-0.6,2-0.9,3c-0.1,0.2-0.1,0.4-0.3,0.6c-0.1-0.1-0.2-0.2-0.2-0.3c-0.9-1.7-1.9-3.4-2.8-5.1
			C4.8,78.2,4.6,78,4.4,78C4.4,77.8,4.4,77.7,4.4,77.6z M25.9,34.8c-0.1-0.4-0.3-0.7-0.4-1c-0.1-0.5,0.1-1,0.6-1.2
			c0.7-0.3,1.3-0.5,2-0.7c0.5-0.1,0.9,0.1,1.1,0.5c0.1,0.2,0.1,0.4,0.2,0.6c0,0.1,0.1,0.3,0.1,0.4c1.2-0.6,1.5-1.3,1.2-2.4
			c-0.1-0.3-0.2-0.6-0.3-0.9c-0.4-0.8-1.2-1.3-2.1-1c-1.3,0.4-2.6,0.8-3.9,1.3c-0.9,0.3-1.3,1.2-1.1,2.2c0.1,0.3,0.2,0.7,0.3,1
			C24,34.8,24.7,35.1,25.9,34.8z M18.7,69c-1.3-0.1-2.5-0.2-3.6-0.3c-0.4,0-0.7,0.1-1,0.4c-0.6,0.5-1.1,0.9-1.7,1.4
			c-0.1,0.1-0.1,0.2-0.2,0.3c1,0.1,2,0.3,2.9,0.4c0.9,0.1,1.9,0.4,2.9,0.3C18.2,70.7,18.4,69.9,18.7,69z M54.2,23.8
			c-0.2-0.5-0.4-1.2-0.7-1.8c-0.1-0.3-0.5-0.4-0.9-0.4c-0.2,0-0.3,0.1-0.5,0.2c-0.3,0.2-0.5,0.5-0.4,0.9c0.2,0.6,0.4,1.2,0.6,1.8
			c0.2,0.4,0.5,0.5,0.9,0.4c0.2,0,0.3-0.1,0.4-0.2C54,24.6,54.2,24.3,54.2,23.8z"/>
		<path class="st1" d="M131.5,37.4c0.1,0,0.1,0,0.1-0.1c0,0,0,0,0.1-0.1c0-0.1,0.1-0.2,0.1-0.3c1.3-10.4,2.6-20.7,3.9-31.1
			c0.2-0.1,0.4-0.1,0.6-0.1c0.2,0,0.4,0,0.7,0c7.1,0,14.2,0,21.3,0c0.3,0,0.7,0,1.1,0c0,0.2,0.1,0.4,0.1,0.6c0,0.3,0,0.5,0,0.8
			c0,22.4,0,44.7,0,67.1c0,0.4,0.1,0.8-0.1,1.2c-0.1,0-0.2,0.1-0.3,0.1c-5.1,0-10.1,0-15.2,0c-0.1,0-0.2-0.1-0.3-0.1
			c-0.1-1.4,0-2.7,0-4.1c0-1.4,0-2.8,0-4.1c0-1.4,0-2.8,0-4.2c0-1.4,0-2.8,0-4.1c0-1.4,0-2.8,0-4.1s0-2.8,0-4.1s0-2.8,0-4.1
			s0-2.8,0-4.1c0-1.4,0-2.8,0-4.2c0-1.4,0-2.8,0-4.1c0-1.4,0-2.7,0-4.1c0,0-0.1,0-0.1,0c0,0.2-0.1,0.4-0.1,0.5
			c0,0.2-0.1,0.4-0.1,0.7c-0.4,3.1-0.8,6.1-1.2,9.2c-0.5,3.5-1,7.1-1.4,10.6c-0.4,3.1-0.8,6.1-1.2,9.2c-0.3,2.6-0.7,5.2-1.1,7.8
			c-0.3,2.2-0.6,4.3-0.9,6.5c0,0.3-0.1,0.7-0.2,1c-0.1,0-0.1,0.1-0.1,0.1c0,0-0.1,0-0.1,0c-0.2,0-0.4,0-0.7,0c-3.4,0-6.7,0-10.1,0
			c-0.1,0-0.1,0-0.2-0.1c0-0.1-0.1-0.3-0.1-0.5c-0.5-3.6-1-7.1-1.6-10.7c-0.6-4.2-1.2-8.3-1.8-12.5c-0.5-3.7-1.1-7.5-1.6-11.2
			c-0.4-3.1-0.9-6.1-1.3-9.2c0-0.1-0.1-0.1-0.1-0.2c0,0.2-0.1,0.3-0.1,0.5c0,0.4,0,0.8,0,1.2c0,13.8,0,27.6,0,41.4
			c0,0.4,0,0.8,0,1.2c-0.4,0.2-0.7,0.1-1.1,0.1c-3.9,0-7.8,0-11.7,0c-0.8,0-1.5,0-2.3,0c-0.2,0-0.4,0-0.7,0c0-0.2-0.1-0.4-0.1-0.6
			c0-0.2,0-0.4,0-0.6c0-22.5,0-44.9,0-67.4c0-0.4-0.1-0.8,0.1-1.2c0.1,0,0.3-0.1,0.4-0.1c7.6,0,15.2,0,22.7,0c0.1,0,0.2,0.1,0.3,0.1
			c0.9,5.2,1.6,10.5,2.4,15.8C130.1,26.9,130.8,32.2,131.5,37.4z"/>
		<path class="st1" d="M256.4,5.8c0.3,0,0.5-0.1,0.7-0.1c5.1,0,10.2,0,15.3,0c2.8,0,5.7,0.1,8.5,0.3c2.3,0.1,4.7,0.3,6.9,0.9
			c1.2,0.3,2.4,0.7,3.5,1.3c3.6,1.9,5.7,4.9,6.4,8.8c0.2,1.2,0.3,2.3,0.4,3.5c0.2,3.4,0.2,6.8,0.2,10.3c0,7.6,0,15.2,0,22.8
			c0,1.7,0,3.3,0,5c-0.1,2.5-0.2,4.9-0.6,7.4c-0.1,0.6-0.3,1.3-0.4,1.9c-0.8,2.4-2.2,4.2-4.4,5.4c-1.7,1-3.6,1.5-5.5,1.7
			c-2.3,0.3-4.6,0.4-7,0.4c-7.6,0-15.2,0-22.8,0c-0.3,0-0.7,0-1.1,0c0-0.2-0.1-0.4-0.1-0.6c0-0.2,0-0.4,0-0.6c0-22.4,0-44.9,0-67.3
			C256.3,6.6,256.2,6.2,256.4,5.8z M274.5,17.7c0,0.5,0,0.9,0,1.3c0,14.4,0,28.7,0,43.1c0,0.3,0,0.6,0,0.9c0,0.2,0.1,0.4,0.1,0.6
			c1.2,0,2.3-0.1,3.3-0.5c0.8-0.3,1.4-0.9,1.6-1.8c0.1-0.6,0.3-1.1,0.3-1.7c0.3-1.7,0.3-3.5,0.3-5.3c0-9.7,0-19.4,0-29.1
			c0-1.2-0.1-2.4-0.1-3.5c0-0.5-0.1-1-0.2-1.4c-0.3-1.1-0.9-1.8-2-2.2C276.8,17.7,275.7,17.6,274.5,17.7z"/>
		<path class="st1" d="M208.6,5.8c0.2,0,0.4-0.1,0.7-0.1c4.5-0.1,13.5-0.1,14.5,0.1c0.9,2.5,1.7,5.1,2.5,7.6
			c0.8,2.6,1.7,5.1,2.5,7.7c0.8,2.5,1.6,5,2.5,7.6c0.8,2.5,1.7,5.1,2.5,7.6c0.3,0,0.2-0.2,0.2-0.3c0-0.3,0-0.6,0-0.9
			c0-9.4,0-18.7,0-28.1c0-0.4,0-0.8,0-1.2c0.2,0,0.4-0.1,0.6-0.1c0.7,0,1.3,0,2,0c3.8,0,7.6,0,11.3,0c0.4,0,0.8,0,1.2,0
			c0,0.2,0.1,0.4,0.1,0.6c0,0.3,0,0.5,0,0.8c0,22.3,0,44.7,0,67c0,0.4,0,0.8,0,1.2c-0.3,0.3-0.6,0.2-0.9,0.2c-2.6,0-5.2,0-7.9,0
			c-2,0-4.1,0-6.1,0c-0.3,0-0.6,0-1,0c-0.1-0.3-0.2-0.6-0.3-0.8c-2.9-9.7-5.8-19.4-8.6-29c-0.1-0.3-0.2-0.6-0.3-0.9
			c0-0.1-0.1-0.2-0.3-0.2c0,5.1,0,10.3,0,15.4c0,5.1,0,10.3,0,15.3c-0.1,0.1-0.1,0.1-0.2,0.2c0,0-0.1,0-0.1,0c-4.8,0-9.6,0-14.4,0
			c-0.1,0-0.3,0-0.4,0c0-0.2-0.1-0.4-0.1-0.5c0-0.2,0-0.4,0-0.7c0-22.4,0-44.8,0-67.3C208.5,6.6,208.4,6.2,208.6,5.8z"/>
		<path class="st1" d="M355.9,75.4c-1,0.2-12.9,0.2-17.1,0.1c-0.2,0-0.4-0.1-0.6-0.1c0-0.3,0-0.5,0-0.7c0.6-3.5,1.2-7,1.8-10.5
			c0.6-3.7,1.2-7.3,1.8-11c0.6-3.6,1.2-7.2,1.8-10.8c0.3-1.7,0.6-3.5,0.9-5.2c0.1-0.5,0.1-1,0-1.4c-0.6-2.8-1.2-5.6-1.8-8.4
			c-1.3-6.2-2.6-12.4-3.9-18.6c-0.2-0.8-0.3-1.6-0.5-2.3c0-0.2,0-0.4-0.1-0.7c0.2,0,0.4-0.1,0.6-0.1c3.6-0.1,15.9,0,16.8,0.1
			c0.4,1.5,0.6,3,0.9,4.6c0.3,1.5,0.6,3.1,1,4.6c0.3,1.5,0.7,3.1,1,4.6c0.3,1.5,0.6,3.1,0.9,4.6c0.6-2,0.9-4.1,1.3-6.1
			c0.4-2.1,0.8-4.1,1.3-6.2c0.4-2,0.8-4.1,1.3-6.1c0.2,0,0.3-0.1,0.4-0.1c4.8,0,9.6,0,14.4,0c0.1,0,0.2,0.1,0.3,0.1
			c0,0.1,0,0.3,0,0.4c-1,4.7-1.9,9.3-2.9,14c-1.1,5.2-2.1,10.4-3.2,15.6c-0.1,0.5-0.1,1,0,1.5c1,4,2,8,3,12c2,8,3.9,16,5.9,23.9
			c0.2,0.7,0.3,1.4,0.5,2.1c-0.4,0.2-0.7,0.1-1,0.1c-3.8,0-7.7,0-11.5,0c-1.1,0-2.1,0-3.2,0c-0.3,0-0.6,0-1,0
			c-0.1-0.3-0.2-0.6-0.3-0.8c-1.2-4.2-2.2-8.4-3.1-12.7c-0.7-3.4-1.3-6.9-2-10.4c0-0.2-0.1-0.5-0.3-0.7
			C358.5,59.1,357,67.2,355.9,75.4z"/>
		<path class="st1" d="M305.2,5.8c0.2,0,0.3-0.1,0.5-0.1c9.9,0,19.7,0,29.5,0c0.3,0.3,0.2,0.7,0.2,1c0,3.2,0,6.3,0,9.5
			c0,0.9,0,1.7,0,2.6c0,0.3,0,0.5,0,0.8c-0.4,0.2-0.7,0.1-1,0.1c-3.3,0-6.6,0-9.9,0c-0.3,0-0.7-0.1-1,0.1c-0.1,0.1-0.1,0.1-0.1,0.1
			c0,0,0,0.1,0,0.1c0,4,0,8.1,0,12.1c0,0.2,0,0.4,0,0.7c0.3,0.3,0.7,0.2,1,0.2c3,0,6.1,0,9.1,0c0.3,0,0.7,0,1,0
			c0.1,0.1,0.1,0.1,0.1,0.1c0,0,0,0.1,0,0.1c0,4.2,0,8.4,0,12.6c0,0.1,0,0.3,0,0.4c-0.3,0.2-0.7,0.1-1,0.1c-3,0-6,0-9,0
			c-0.3,0-0.7,0-1,0c-0.3,0.3-0.2,0.7-0.2,1c0,2.7,0,5.4,0,8.1c0,1.7,0,3.5,0,5.2c0,0.3,0,0.6,0,1c0.4,0.1,0.7,0.1,1.1,0.1
			c3.7,0,7.4,0,11,0c0.3,0,0.7,0,1.1,0c0,0.2,0.1,0.4,0.1,0.5c0.1,2.1,0,12.6-0.1,13.4c-0.2,0-0.3,0.1-0.5,0.1c-0.2,0-0.4,0-0.7,0
			c-9.6,0-19.3,0-28.9,0c-0.4,0-0.8,0-1.2,0c0-0.2-0.1-0.4-0.1-0.6c0-0.2,0-0.4,0-0.6c0-22.5,0-44.9,0-67.4
			C305.1,6.6,305,6.2,305.2,5.8z"/>
		<path class="st1" d="M192.1,75.5c-5.6,0-11.1,0-16.7,0c0-0.2-0.1-0.4-0.1-0.5c0-0.3,0-0.6,0-1c0-7.5,0-15,0-22.6
			c0-0.7-0.1-1.5-0.3-2.2C171,35.1,166.9,21,162.9,6.8c-0.1-0.3-0.2-0.6-0.3-1c0.2-0.1,0.4-0.1,0.6-0.1c0.2,0,0.4,0,0.7,0
			c4.7,0,9.5,0,14.2,0c0.4,0,0.8,0,1.2,0c0.4,1.3,0.5,2.5,0.8,3.8c0.3,1.2,0.5,2.5,0.7,3.7c0.2,1.3,0.5,2.5,0.7,3.8
			c0.2,1.2,0.4,2.5,0.6,3.7c0.2,1.3,0.4,2.5,0.6,3.8c0.2,1.2,0.4,2.5,0.5,3.7c0.2,1.2,0.3,2.5,0.5,3.8c0.3-0.1,0.2-0.3,0.3-0.5
			c0-0.2,0.1-0.4,0.1-0.7c0-0.2,0.1-0.4,0.1-0.6c0-0.2,0.1-0.4,0.1-0.7c0-0.2,0.1-0.4,0.1-0.6c0-0.2,0.1-0.4,0.1-0.7
			c0-0.2,0.1-0.4,0.1-0.6c0-0.2,0.1-0.4,0.1-0.7c0-0.2,0.1-0.4,0.1-0.6c0-0.2,0.1-0.4,0.1-0.7c0-0.2,0.1-0.4,0.1-0.6
			c0-0.2,0.1-0.4,0.1-0.7c0-0.2,0.1-0.4,0.1-0.6c0-0.2,0.1-0.4,0.1-0.7c0-0.2,0.1-0.4,0.1-0.6c0-0.2,0.1-0.4,0.1-0.6
			c0-0.2,0.1-0.4,0.1-0.7c0-0.2,0.1-0.4,0.1-0.6c0-0.2,0.1-0.4,0.1-0.7c0-0.2,0.1-0.4,0.1-0.6c0-0.2,0.1-0.4,0.1-0.7
			c0-0.2,0.1-0.4,0.1-0.6c0-0.2,0.1-0.4,0.1-0.7c0-0.2,0.1-0.4,0.1-0.6c0-0.2,0.1-0.4,0.1-0.7c0-0.2,0.1-0.4,0.1-0.6
			c0-0.2,0.1-0.4,0.1-0.7c0-0.2,0.1-0.4,0.1-0.6c0-0.2,0.1-0.4,0.1-0.6c0-0.2,0.1-0.4,0.1-0.7c0-0.2,0.1-0.4,0.1-0.6
			c0-0.2,0.1-0.4,0.1-0.7c0-0.2,0.1-0.4,0.1-0.6c0-0.2,0.1-0.4,0.1-0.7c0-0.2,0.1-0.4,0.1-0.6c0-0.2,0.1-0.4,0.1-0.7
			c0-0.2,0.1-0.4,0.1-0.6c0-0.2,0.1-0.4,0.1-0.7c0-0.2,0.1-0.4,0.1-0.6c0-0.2,0.1-0.4,0.1-0.7c0-0.2,0.1-0.4,0.1-0.6
			c0-0.2,0.1-0.4,0.1-0.7c0-0.2,0.1-0.4,0.2-0.6c0.2,0,0.5-0.1,0.7-0.1c5,0,10,0,15.1,0c0.2,0,0.5,0,0.8,0.1c-0.1,0.4-0.2,0.7-0.3,1
			c-4,13.4-8,26.8-11.9,40.2c-0.1,0.3-0.2,0.6-0.3,0.9c-0.6,1.6-0.8,3.3-0.7,5.1c0,7.1,0,14.2,0,21.3
			C192.2,74.6,192.1,75,192.1,75.5z"/>
		<path class="st1" d="M383.9,5.8c0.9-0.1,18-0.1,19,0c0,0.2,0.1,0.4,0.1,0.6c-0.1,1.8-0.2,3.6-0.3,5.4c-0.1,1.6-0.2,3.2-0.3,4.8
			c-0.2,3-0.3,5.9-0.5,8.9c-0.2,4.1-0.5,8.1-0.7,12.2c-0.1,1.3-0.1,2.6-0.2,3.9c-0.2,4.2-0.4,8.4-0.7,12.5c-0.1,1.1-0.1,2.3-0.2,3.4
			c0,0.2,0,0.4-0.1,0.5c-0.3,0.2-0.6,0.2-1,0.2c-2.3,0-4.7,0-7,0c-1.5,0-2.9,0-4.4,0c-0.3,0-0.6,0-1,0c-0.1-0.2-0.1-0.4-0.1-0.6
			c-0.1-2.6-0.3-5.2-0.4-7.9c-0.2-3.1-0.3-6.1-0.5-9.2c-0.1-1.3-0.1-2.6-0.2-3.9c-0.2-3-0.3-6-0.5-9c-0.2-4-0.5-8-0.7-12.1
			c-0.2-2.9-0.3-5.9-0.5-8.8C383.9,6.5,383.9,6.2,383.9,5.8z"/>
		<path class="st1" d="M401.6,61.5c0,4.7,0,9.3,0,13.8c-0.4,0.2-0.8,0.1-1.1,0.1c-4.6,0-9.1,0-13.7,0c-0.4,0-0.9,0-1.3,0
			c-0.3-0.4-0.2-0.7-0.2-1.1c0-3.6,0-7.2,0-10.8c0-0.6,0-1.3,0-2c0.2,0,0.4-0.1,0.6-0.1c1.1,0,2.2,0,3.4,0c3.7,0,7.5,0,11.2,0
			C400.8,61.5,401.1,61.5,401.6,61.5z"/>
		<path class="st1" d="M65.8,40.6c-0.1-0.7-0.1-1.3,0-1.9c0.1-0.1,0.1-0.1,0.1-0.1c0,0,0.1,0,0.1,0c9.4,0,18.7,0,28.1,0
			c0.2,0,0.3,0,0.5,0c0.3,0.6,0.1,1.2,0.2,1.9c-0.3,0.1-0.4,0.1-0.6,0.1c-0.2,0-0.4,0-0.7,0c-8.8,0-17.6,0-26.5,0
			C66.6,40.6,66.2,40.6,65.8,40.6z"/>
		<path class="st1" d="M66.3,35c-0.3-0.6-0.3-1.2-0.4-1.8c0.3-0.1,0.5-0.2,0.7-0.2c4.8-1,9.6-1.9,14.4-2.9c3.9-0.8,7.9-1.6,11.8-2.4
			c0.4-0.1,0.9-0.2,1.3-0.3c0.4,0.6,0.3,1.2,0.6,1.8c-0.3,0.1-0.4,0.2-0.6,0.2c-3.8,0.8-7.5,1.5-11.3,2.3c-4.2,0.9-8.5,1.7-12.7,2.6
			c-1,0.2-2.1,0.4-3.1,0.6C66.8,35,66.5,35,66.3,35z"/>
		<path class="st1" d="M94.4,52.3c0,0.7-0.2,1.3-0.4,1.9c-0.3,0-0.5,0-0.7-0.1c-7-1.8-14-3.6-21-5.3c-1.9-0.5-3.8-1-5.7-1.4
			c-0.2-0.1-0.4-0.1-0.7-0.2c-0.1-0.7,0.2-1.3,0.4-1.9c0.2,0,0.4,0,0.6,0.1c5.5,1.4,11.1,2.8,16.6,4.2c3.4,0.9,6.7,1.7,10.1,2.6
			C94,52.1,94.2,52.2,94.4,52.3z"/>
		<path class="st1" d="M19.4,115.4c-0.3,0.2-0.6,0.5-0.9,0.8c-0.2-0.2-0.1-0.5-0.1-0.8C18.8,115.3,19.1,115.3,19.4,115.4
			C19.4,115.5,19.4,115.4,19.4,115.4z"/>
	</g>
</g>
</svg>
